<?xml version="1.0" encoding="UTF-8" standalone="no"?>
<svg width="100px" height="100px" viewBox="0 0 100 100" version="1.1" xmlns="http://www.w3.org/2000/svg" xmlns:xlink="http://www.w3.org/1999/xlink" xmlns:sketch="http://www.bohemiancoding.com/sketch/ns">
    <title>Untitled</title>
    <description>Created with Sketch (http://www.bohemiancoding.com/sketch)</description>
    <defs></defs>
    <g id="Page-1" stroke="none" stroke-width="1" fill="none" fill-rule="evenodd" sketch:type="MSPage">
        <g id="settings" sketch:type="MSLayerGroup">
            <g id="Page-1">
                <g id="Shape"></g>
                <path d="M96,59 C97,59 99,57 99,55 C99,55 100,53 100,50 C100,47 99,44 99,44 C99,42 97,41 96,41 L86,41 C84,41 82,40 82,38 C81,37 80,32 82,31 L89,24 C90,22 90,20 89,19 L81,11 C79,10 77,10 76,11 L69,18 C68,19 65,20 64,19 C63,18 59,15 59,14 L59,4 C59,2 57,0 55,0 L50,0 L44,0 C42,0 41,2 41,4 L41,14 C41,15 40,17 38,18 C37,18 32,19 31,18 L24,11 C22,10 20,10 19,11 L11,19 C10,20 10,22 11,24 L18,31 C19,32 20,34 19,35 C18,37 15,41 14,41 L4,41 C2,41 0,42 0,44 L0,50 L0,55 C0,57 2,59 4,59 L14,59 C15,59 17,60 18,61 C18,63 19,68 18,69 L11,76 C10,77 10,79 11,81 L19,89 C20,90 22,90 24,89 L31,82 C32,80 34,80 35,81 C37,81 41,84 41,86 L41,96 C41,97 42,99 44,99 C44,99 47,100 50,100 C53,100 55,99 55,99 C57,99 59,97 59,96 L59,86 C59,84 60,82 61,82 C63,81 68,80 69,82 L76,89 C77,90 79,90 81,89 L89,81 C90,79 90,77 89,76 L82,69 C80,68 80,65 81,64 C81,63 84,59 86,59 L96,59 M50,68 C39,68 31,60 31,50 C31,39 39,31 50,31 C60,31 68,39 68,50 C68,60 60,68 50,68 L50,68" id="Shape" fill="#000000" sketch:type="MSShapeGroup"></path>
            </g>
        </g>
    </g>
</svg>